<svg width="529" height="220" viewBox="0 0 529 220" fill="none" xmlns="http://www.w3.org/2000/svg">
<path d="M83.9895 0.130277H74.9941C73.2643 0.130277 72.2263 1.34236 72.2263 3.07392V69.9119C72.2263 71.4703 73.2643 72.8555 74.9941 72.8555H83.9895C85.7193 72.8555 86.9303 71.6434 86.9303 69.9119V3.07392C86.9303 1.51552 85.5464 0.130277 83.9895 0.130277Z" fill="white"/>
<path d="M55.9655 52.9426C55.1005 51.2111 52.8517 50.6916 51.4678 52.0769C47.6621 55.7131 42.6454 57.791 36.9369 57.791C22.2329 57.791 11.1617 42.8996 17.5622 27.3157C19.4651 22.6405 23.0978 19.0042 27.7685 17.0995C36.7639 13.2901 45.4132 15.5411 51.1218 20.7358C52.5057 22.121 54.9276 21.6015 55.6195 19.87L59.4252 11.3854C60.1172 10.0001 59.5982 8.44173 58.3873 7.57595C49.392 0.649741 36.9369 -1.94759 23.9628 2.38129C13.5835 6.01756 5.45312 14.329 2.16635 24.8915C-5.27211 49.8258 13.2376 72.8555 36.9369 72.8555C45.2403 72.8555 52.8517 70.085 58.9063 65.4098C60.1172 64.5441 60.4632 62.9857 59.7712 61.6004L55.9655 52.9426Z" fill="white"/>
<path d="M215.114 24.7183C211.827 14.1559 203.697 5.8444 193.318 2.20814C186.052 -0.38919 178.787 -0.562345 172.386 0.996053C161.661 3.59338 153.876 8.61489 146.957 23.5062L133.118 53.6353L109.592 1.86183C109.073 0.822897 108.035 0.130276 106.997 0.130276H96.7906C94.7147 0.130276 93.3308 2.3813 94.1957 4.286L124.642 71.124C125.161 72.1629 126.198 72.8555 127.236 72.8555H139.173C139.345 72.8555 139.691 72.8555 139.864 72.6824C140.729 72.3361 141.248 71.8166 141.594 71.124C141.594 71.124 156.817 36.3197 156.99 35.9734C161.661 25.0646 164.429 20.3894 171.867 17.2727C177.403 14.8485 183.976 14.6753 190.377 17.4458C194.875 19.5237 198.334 23.1599 200.064 27.662C201.275 30.4325 201.794 33.3761 201.967 36.3197C202.14 48.2675 192.626 57.9642 180.69 57.9642C175.154 57.9642 169.964 55.7131 166.159 52.25C164.775 50.8648 162.353 51.3843 161.661 53.1158L157.855 61.6004C157.336 62.9857 157.682 64.5441 158.72 65.4098C164.775 70.085 172.386 72.8555 180.69 72.8555C204.562 72.8555 223.071 49.8259 215.114 24.7183Z" fill="white"/>
<path d="M49.565 102.292V160.818C49.565 161.684 49.219 162.55 48.7 163.069C48.1811 163.589 47.4891 163.762 46.7972 163.762C46.4512 163.762 46.1052 163.762 45.5862 163.589C45.2403 163.416 44.8943 163.243 44.5483 162.896L5.7991 109.911V161.165C5.7991 161.857 5.62611 162.377 5.10715 162.896C4.58819 163.416 4.06922 163.589 3.37727 163.589C2.51234 163.589 1.99337 163.416 1.47441 162.896C0.955447 162.55 0.78246 161.857 0.78246 161.165V102.465C0.78246 101.599 1.12843 100.907 1.6474 100.387C2.16636 99.8677 2.85831 99.6946 3.37727 99.6946C3.72325 99.6946 4.06922 99.6946 4.58819 100.041C4.93416 100.214 5.28014 100.387 5.62611 100.734L44.5483 153.719V102.292C44.5483 101.599 44.7213 100.907 45.2403 100.387C45.7592 99.8677 46.4512 99.6946 46.9701 99.6946C47.8351 99.6946 48.354 99.8677 48.7 100.387C49.219 100.907 49.565 101.599 49.565 102.292Z" fill="white"/>
<path d="M113.57 160.126L89.871 101.253C89.6981 100.734 89.3521 100.214 88.8331 100.041C88.4871 99.6946 87.9682 99.5214 87.2762 99.5214C86.5843 99.5214 86.0653 99.6946 85.7193 100.041C85.3734 100.214 84.8544 100.734 84.6814 101.426L60.6361 160.299C60.4631 160.645 60.4631 161.165 60.6361 161.338C60.6361 162.03 60.9821 162.55 61.3281 163.069C61.6741 163.416 62.366 163.762 63.2309 163.762C63.7499 163.762 64.2689 163.589 64.6149 163.243C64.9608 162.896 65.3068 162.55 65.6528 161.857L72.3993 145.061H101.807L108.554 161.857C108.727 162.377 109.073 162.896 109.592 163.243C110.111 163.589 110.63 163.762 111.149 163.762C111.84 163.762 112.532 163.589 113.051 163.069C113.57 162.55 113.916 161.857 113.916 160.992C113.743 160.818 113.743 160.472 113.57 160.126ZM74.4751 139.867L86.9302 108.526L99.5583 139.867H74.4751Z" fill="white"/>
<path d="M165.121 102.292C165.121 102.638 165.121 103.158 164.775 103.677L140.729 161.857C140.383 162.377 140.037 162.896 139.518 163.243C138.999 163.589 138.481 163.762 138.135 163.762C137.616 163.762 137.097 163.589 136.578 163.243C136.059 162.896 135.713 162.55 135.54 162.031L111.494 103.677C111.494 103.504 111.321 103.331 111.321 102.985C111.321 102.811 111.149 102.465 111.149 102.119C111.149 101.253 111.494 100.734 112.013 100.214C112.705 99.6946 113.224 99.5214 113.916 99.5214C115.127 99.5214 115.992 100.214 116.684 101.599L138.308 154.239L159.758 101.426C160.277 100.214 161.142 99.5214 162.353 99.5214C163.218 99.5214 163.91 99.8677 164.429 100.214C164.775 100.907 165.121 101.426 165.121 102.292Z" fill="white"/>
<path d="M182.419 160.818C182.419 161.684 182.073 162.204 181.381 162.896C180.863 163.416 180.171 163.762 179.479 163.762C178.614 163.762 177.922 163.416 177.403 162.896C176.884 162.377 176.711 161.684 176.711 160.818V102.638C176.711 101.772 177.057 101.253 177.576 100.56C178.095 100.041 178.787 99.6946 179.652 99.6946C180.344 99.6946 181.036 100.041 181.554 100.56C182.073 101.08 182.419 101.772 182.419 102.638V160.818Z" fill="white"/>
<path d="M248.155 134.152V156.143C248.155 156.663 247.982 157.009 247.809 157.528C247.636 157.875 247.29 158.394 246.771 158.567C244.176 160.299 241.235 161.857 237.775 162.896C234.489 163.935 231.202 164.455 227.569 164.455C222.898 164.455 218.574 163.589 214.595 162.03C210.616 160.299 207.157 158.048 204.216 155.104C201.275 152.161 199.026 148.524 197.469 144.542C195.912 140.559 195.047 136.23 195.047 131.555C195.047 126.88 195.912 122.551 197.469 118.569C199.026 114.586 201.275 111.123 204.216 108.179C207.157 105.236 210.616 102.811 214.595 101.253C218.574 99.5214 222.898 98.8288 227.569 98.8288C230.683 98.8288 233.797 99.1751 236.737 100.041C239.678 100.734 242.446 101.946 244.868 103.504C245.214 103.85 245.56 104.197 245.733 104.543C245.906 104.889 246.079 105.236 246.079 105.755C246.079 106.621 245.733 107.313 245.214 107.833C244.695 108.352 244.176 108.525 243.484 108.525C243.138 108.525 242.965 108.525 242.619 108.525C242.446 108.352 242.1 108.352 241.927 108.179C239.851 106.967 237.602 106.101 235.181 105.409C232.759 104.716 230.164 104.37 227.569 104.37C222.38 104.37 217.882 105.582 213.73 107.833C209.751 110.257 206.638 113.547 204.216 117.703C201.967 121.858 200.756 126.534 200.756 131.728C200.756 136.923 201.967 141.598 204.216 145.754C206.465 149.91 209.578 153.2 213.73 155.451C217.709 157.875 222.38 158.914 227.569 158.914C230.337 158.914 232.932 158.567 235.7 157.702C238.294 157.009 240.543 155.97 242.446 154.758V136.923H228.261C227.569 136.923 226.877 136.577 226.358 136.057C225.839 135.538 225.493 134.845 225.493 134.152C225.493 133.287 225.839 132.594 226.358 132.075C226.877 131.555 227.569 131.382 228.261 131.382H245.56C246.425 131.382 246.944 131.728 247.463 132.248C247.809 132.767 248.155 133.46 248.155 134.152Z" fill="white"/>
<path d="M309.219 160.126L285.52 101.426C285.347 100.907 285.001 100.387 284.482 100.214C284.136 99.8677 283.617 99.6946 282.925 99.6946C282.233 99.6946 281.714 99.8677 281.368 100.214C281.022 100.387 280.503 100.907 280.33 101.599L256.458 160.645C256.285 160.992 256.285 161.511 256.458 161.684C256.458 162.377 256.804 162.896 257.15 163.416C257.496 163.762 258.188 164.108 259.053 164.108C259.572 164.108 260.091 163.935 260.437 163.589C260.783 163.243 261.129 162.896 261.475 162.204L268.221 145.408H297.629L304.376 162.204C304.549 162.723 304.895 163.243 305.414 163.589C305.933 163.935 306.452 164.108 306.97 164.108C307.662 164.108 308.354 163.935 308.873 163.416C309.392 162.896 309.738 162.204 309.738 161.338C309.392 160.818 309.219 160.472 309.219 160.126ZM269.951 139.867L282.406 108.699L295.034 139.867H269.951Z" fill="white"/>
<path d="M332.054 104.889V160.992C332.054 161.684 332.227 162.377 332.746 162.896C333.265 163.416 333.957 163.762 334.821 163.762C335.686 163.762 336.205 163.416 336.724 162.896C337.243 162.377 337.589 161.684 337.589 160.992V104.889H332.054Z" fill="white"/>
<path d="M359.04 102.465C359.04 103.331 358.694 103.85 358.175 104.37C357.656 104.716 356.964 105.062 356.272 105.062H313.371C312.679 105.062 311.987 104.889 311.468 104.37C310.949 103.85 310.603 103.158 310.603 102.465C310.603 101.772 310.949 101.08 311.468 100.56C311.987 100.041 312.679 99.8677 313.371 99.8677H356.272C356.964 99.8677 357.656 100.041 358.175 100.56C358.694 100.907 359.04 101.599 359.04 102.465Z" fill="white"/>
<path d="M408.168 159.087C408.687 159.606 409.033 160.299 409.033 160.992C409.033 161.857 408.687 162.377 408.168 162.896C407.649 163.416 406.957 163.589 406.265 163.589H373.225C372.533 163.589 371.841 163.243 371.322 162.723C370.803 162.204 370.457 161.511 370.457 160.818V102.465C370.457 101.772 370.803 101.08 371.322 100.56C371.841 100.041 372.533 99.6946 373.225 99.6946H406.265C406.957 99.6946 407.649 100.041 408.168 100.56C408.687 101.08 409.033 101.599 409.033 102.465C409.033 103.331 408.687 103.85 408.168 104.37C407.649 104.889 406.957 105.062 406.265 105.062H376.165V127.919H402.287C402.979 127.919 403.67 128.265 404.189 128.785C404.708 129.304 405.054 129.997 405.054 130.689C405.054 131.555 404.708 132.075 404.189 132.594C403.67 133.114 402.979 133.287 402.287 133.287H376.165V158.221H406.265C406.957 158.394 407.649 158.567 408.168 159.087Z" fill="white"/>
<path d="M471.482 118.222C469.406 117.183 467.33 116.664 464.908 116.664C462.486 116.664 460.237 117.183 458.335 118.222L462.486 125.322C462.659 125.668 463.005 125.841 463.351 125.668C464.389 125.322 465.6 125.322 466.638 125.668C466.984 125.841 467.33 125.668 467.503 125.322L471.482 118.222Z" fill="#239DFF"/>
<path fill-rule="evenodd" clip-rule="evenodd" d="M466.984 135.365C469.06 134.152 469.752 131.728 468.541 129.65C468.022 128.612 467.157 127.919 465.946 127.746C465.6 127.573 465.254 127.573 464.908 127.573C464.216 127.573 463.524 127.746 462.832 128.092C461.794 128.612 461.102 129.477 460.929 130.689C460.583 131.728 460.756 132.94 461.275 133.806C462.486 135.884 465.081 136.577 466.984 135.365ZM466.984 131.728C466.984 132.94 466.119 133.806 464.908 133.806C463.697 133.806 462.832 132.94 462.832 131.728C462.832 130.516 463.697 129.65 464.908 129.65C466.119 129.65 466.984 130.516 466.984 131.728Z" fill="#239DFF"/>
<path d="M460.583 126.361L456.432 119.261C452.626 121.685 450.204 125.841 449.858 130.689H457.989C458.334 130.689 458.681 130.516 458.681 130.17C459.026 129.131 459.545 128.092 460.237 127.399C460.756 127.053 460.756 126.707 460.583 126.361Z" fill="#239DFF"/>
<path d="M449.858 132.767C450.204 137.442 452.799 141.598 456.432 144.196L460.583 137.096C460.756 136.75 460.756 136.404 460.41 136.23C460.064 135.884 459.718 135.365 459.372 134.845C459.026 134.326 458.853 133.806 458.681 133.287C458.508 132.94 458.334 132.767 457.989 132.767H449.858Z" fill="#239DFF"/>
<path d="M458.335 145.061C460.41 146.1 462.486 146.62 464.908 146.62C467.33 146.62 469.579 146.1 471.482 145.061L467.33 137.962C467.157 137.616 466.811 137.442 466.465 137.616C465.946 137.789 465.427 137.789 464.908 137.789C464.389 137.789 463.87 137.789 463.178 137.616C462.832 137.442 462.486 137.616 462.313 137.962L458.335 145.061Z" fill="#239DFF"/>
<path d="M469.233 137.096L473.384 144.196C477.19 141.771 479.612 137.616 479.958 132.767H471.828C471.482 132.767 471.136 132.94 471.136 133.287C470.79 134.326 470.271 135.365 469.579 136.057C469.06 136.404 469.06 136.75 469.233 137.096Z" fill="#239DFF"/>
<path d="M470.963 130.17C471.136 130.516 471.309 130.689 471.655 130.689H479.785C479.439 126.014 476.844 121.858 473.211 119.261L469.06 126.361C468.887 126.707 468.887 127.053 469.233 127.226C469.579 127.573 469.925 128.092 470.271 128.612C470.617 129.131 470.79 129.65 470.963 130.17Z" fill="#239DFF"/>
<path fill-rule="evenodd" clip-rule="evenodd" d="M430.657 98.8288C428.235 98.8288 426.332 100.734 426.332 103.158V160.472C426.332 162.896 428.235 164.801 430.657 164.801H489.818C491.375 164.801 492.759 163.935 493.451 162.723L527.876 105.409C529.605 102.638 527.53 99.0019 524.243 99.0019H430.657V98.8288ZM486.359 130.343C486.878 129.824 487.742 129.477 488.434 129.65C489.645 129.997 490.164 131.036 489.991 132.248C489.645 133.46 488.434 133.979 487.396 133.806C487.051 133.633 486.705 133.46 486.359 133.114C486.186 132.94 485.84 132.767 485.494 132.767H482.034C481.688 138.308 478.747 142.983 474.422 145.927L476.152 148.871C476.325 149.217 476.671 149.39 476.844 149.39C477.536 149.563 478.228 150.083 478.401 150.949C478.747 152.161 478.055 153.2 476.844 153.546C475.633 153.892 474.595 153.2 474.249 151.987C474.076 151.641 474.076 151.122 474.249 150.775C474.422 150.429 474.249 150.083 474.249 149.91L472.52 146.966C470.271 148.178 467.676 148.698 464.908 148.698C462.14 148.698 459.546 148.005 457.297 146.966L455.567 149.91C455.394 150.256 455.394 150.429 455.567 150.775C455.74 151.468 455.567 152.334 455.048 153.026C454.183 153.892 452.799 153.892 452.107 153.026C451.242 152.161 451.242 150.775 452.107 150.083C452.453 149.736 452.799 149.563 453.145 149.563C453.491 149.563 453.664 149.39 453.837 149.044L455.567 146.1C451.242 143.157 448.301 138.481 447.955 132.94H444.496C444.15 132.94 443.804 133.114 443.631 133.287C443.112 133.806 442.247 134.152 441.555 133.979C440.344 133.633 439.825 132.594 439.998 131.382C440.344 130.17 441.555 129.65 442.593 129.824C442.939 129.997 443.285 130.17 443.631 130.516C443.804 130.689 444.15 130.863 444.496 130.863H447.955C448.301 125.322 451.242 120.646 455.567 117.703L453.837 114.759C453.664 114.413 453.318 114.24 453.145 114.24C452.453 114.066 451.761 113.547 451.588 112.681C451.242 111.469 451.934 110.43 453.145 110.084C454.356 109.738 455.394 110.43 455.74 111.642C455.913 111.989 455.913 112.508 455.74 112.854C455.567 113.201 455.74 113.547 455.74 113.72L457.47 116.664C459.718 115.452 462.313 114.932 465.081 114.932C467.849 114.932 470.444 115.625 472.693 116.664L474.422 113.72C474.595 113.374 474.595 113.201 474.422 112.854C474.249 112.162 474.422 111.296 474.941 110.603C475.806 109.738 477.19 109.738 477.882 110.603C478.747 111.469 478.747 112.854 477.882 113.547C477.536 113.893 477.19 114.066 476.844 114.066C476.498 114.066 476.325 114.24 476.152 114.586L474.422 117.53C478.747 120.473 481.688 125.148 482.034 130.689H485.494C485.84 130.689 486.013 130.516 486.359 130.343Z" fill="#239DFF"/>
<path d="M0.5 203.779H128.5V206.683H0.5V203.779Z" fill="white"/>
<path d="M401.227 203.779H528.5V206.683H401.227V203.779Z" fill="white"/>
<path d="M164.962 214.169H180.551V210.553H169.268V203.706H179.933V200.223H169.268V193.742H180.551V190.127H164.962V214.169Z" fill="white"/>
<path d="M190.581 214.519C193.252 214.519 195.071 213.286 195.989 211.403H196.072V214.169H200.228V196.508H196.072V206.738C196.072 209.304 194.553 211.02 192.167 211.02C189.797 211.02 188.628 209.604 188.628 207.104V196.508H184.472V207.921C184.472 212.019 186.692 214.519 190.581 214.519Z" fill="white"/>
<path d="M204.333 214.169H208.489V203.822C208.489 201.34 209.908 199.824 212.261 199.824C212.962 199.824 213.596 199.923 213.947 200.057V196.308C213.63 196.225 213.146 196.141 212.628 196.141C210.542 196.141 208.99 197.391 208.456 199.457H208.372V196.508H204.333V214.169Z" fill="white"/>
<path d="M223.927 214.519C229.118 214.519 232.489 211.07 232.489 205.338V205.305C232.489 199.607 229.068 196.141 223.91 196.141C218.77 196.141 215.365 199.64 215.365 205.305V205.338C215.365 211.053 218.72 214.519 223.927 214.519ZM223.944 211.17C221.29 211.17 219.604 209.054 219.604 205.338V205.305C219.604 201.64 221.323 199.507 223.91 199.507C226.548 199.507 228.25 201.623 228.25 205.305V205.338C228.25 209.037 226.564 211.17 223.944 211.17Z" fill="white"/>
<path d="M235.843 220H239.999V211.186H240.083C241.084 213.252 243.104 214.519 245.624 214.519C250.064 214.519 252.901 211.02 252.901 205.355V205.338C252.901 199.64 250.064 196.141 245.574 196.141C243.037 196.141 241.101 197.441 240.083 199.557H239.999V196.508H235.843V220ZM244.339 211.02C241.768 211.02 239.966 208.804 239.966 205.355V205.338C239.966 201.873 241.768 199.64 244.339 199.64C246.993 199.64 248.662 201.806 248.662 205.338V205.355C248.662 208.837 246.993 211.02 244.339 211.02Z" fill="white"/>
<path d="M264.033 214.519C268.656 214.519 271.26 211.786 271.81 209.07L271.86 208.887H267.972L267.938 209.004C267.538 210.187 266.186 211.286 264.116 211.286C261.412 211.286 259.71 209.454 259.643 206.355H272.027V205.022C272.027 199.69 268.89 196.141 263.832 196.141C258.775 196.141 255.521 199.807 255.521 205.372V205.388C255.521 211.003 258.725 214.519 264.033 214.519ZM263.882 199.39C266.086 199.39 267.688 200.79 267.988 203.589H259.693C260.027 200.873 261.679 199.39 263.882 199.39Z" fill="white"/>
<path d="M283.008 214.169H299.949V210.653H288.7V210.47L294.007 205.438C298.247 201.373 299.565 199.457 299.565 196.625V196.591C299.565 192.626 296.194 189.71 291.37 189.71C286.48 189.71 282.775 192.859 282.775 197.258V197.374H286.814V197.258C286.864 194.942 288.733 193.159 291.404 193.159C293.723 193.159 295.342 194.692 295.359 196.841V196.875C295.359 198.657 294.675 199.873 291.52 202.956L283.008 211.236V214.169Z" fill="white"/>
<path d="M312.9 214.585C318.792 214.585 322.363 209.803 322.363 202.156V202.123C322.363 194.475 318.792 189.71 312.9 189.71C306.992 189.71 303.437 194.475 303.437 202.123V202.156C303.437 209.803 306.992 214.585 312.9 214.585ZM312.9 211.07C309.645 211.07 307.776 207.704 307.776 202.156V202.123C307.776 196.575 309.645 193.242 312.9 193.242C316.138 193.242 318.024 196.575 318.024 202.123V202.156C318.024 207.704 316.138 211.07 312.9 211.07Z" fill="white"/>
<path d="M326.035 214.169H342.975V210.653H331.726V210.47L337.034 205.438C341.273 201.373 342.591 199.457 342.591 196.625V196.591C342.591 192.626 339.22 189.71 334.396 189.71C329.506 189.71 325.801 192.859 325.801 197.258V197.374H329.84V197.258C329.89 194.942 331.759 193.159 334.43 193.159C336.75 193.159 338.369 194.692 338.385 196.841V196.875C338.385 198.657 337.701 199.873 334.547 202.956L326.035 211.236V214.169Z" fill="white"/>
<path d="M355.542 214.585C360.867 214.585 364.539 211.653 364.539 207.471V207.438C364.539 204.105 362.185 202.006 358.63 201.673V201.59C361.518 200.99 363.687 199.007 363.687 196.025V195.991C363.687 192.259 360.466 189.71 355.492 189.71C350.636 189.71 347.348 192.409 346.997 196.475L346.98 196.675H350.986L351.003 196.508C351.22 194.442 352.955 193.126 355.492 193.126C358.079 193.126 359.548 194.392 359.548 196.558V196.591C359.548 198.691 357.779 200.19 355.125 200.19H352.371V203.389H355.225C358.296 203.389 360.166 204.788 360.166 207.321V207.354C360.166 209.537 358.313 211.07 355.526 211.07C352.705 211.07 350.836 209.654 350.602 207.704L350.585 207.521H346.463L346.48 207.721C346.813 211.753 350.252 214.585 355.542 214.585Z" fill="white"/>
</svg>
